<svg width="566" height="566" viewBox="0 0 566 566" fill="none" xmlns="http://www.w3.org/2000/svg">
    <path
        d="M566 283C566 227.028 549.402 172.313 518.306 125.774C487.209 79.2345 443.011 42.9617 391.299 21.5421C339.588 0.122492 282.686 -5.48185 227.789 5.43777C172.893 16.3574 122.467 43.3105 82.8888 82.8888C43.3105 122.467 16.3574 172.893 5.43777 227.789C-5.48185 282.686 0.122493 339.588 21.5421 391.299C42.9617 443.011 79.2345 487.209 125.774 518.306C172.313 549.402 227.028 566 283 566L283 424.225C255.068 424.225 227.764 415.943 204.539 400.425C181.315 384.906 163.214 362.85 152.525 337.045C141.836 311.239 139.039 282.843 144.488 255.448C149.938 228.053 163.388 202.889 183.139 183.139C202.889 163.388 228.053 149.938 255.448 144.488C282.843 139.039 311.239 141.836 337.045 152.525C362.85 163.214 384.906 181.315 400.425 204.539C415.943 227.764 424.225 255.068 424.225 283H566Z"
        fill="white"/>
    <path
        d="M472.645 527L436.895 473.25L405.395 527H356.895L413.145 437.75L355.645 351.5H405.395L440.645 404.5L471.645 351.5H520.145L464.395 440L522.395 527H472.645Z"
        fill="white"/>
</svg>
