<svg width="961" height="752" viewBox="0 0 961 752" fill="none" xmlns="http://www.w3.org/2000/svg">
<path fill-rule="evenodd" clip-rule="evenodd" d="M688.633 167.106C729.948 228.939 752 301.634 752 376H607.781C607.781 330.158 594.187 285.346 568.719 247.23C543.25 209.113 507.051 179.405 464.699 161.862C422.346 144.32 375.743 139.73 330.782 148.673C285.821 157.616 244.521 179.691 212.106 212.106C179.691 244.521 157.616 285.821 148.673 330.782C139.73 375.743 144.32 422.346 161.863 464.699C179.406 507.051 209.113 543.25 247.23 568.719C285.346 594.187 330.158 607.781 376 607.781V752C301.634 752 228.939 729.948 167.106 688.633C105.273 647.317 57.08 588.594 28.6215 519.889C0.162915 451.184 -7.28314 375.583 7.2249 302.646C21.7329 229.709 57.5435 162.712 110.128 110.128C162.713 57.5434 229.709 21.7328 302.646 7.22478C375.583 -7.28326 451.184 0.162793 519.889 28.6213C588.594 57.0799 647.317 105.273 688.633 167.106ZM435.97 460.93V448.15H459.28V435.82H420.58V499H459.28V486.67H435.97V472.81H456.58V460.93H435.97ZM507.971 473.8V461.02H468.371V473.8H507.971ZM557.028 487.12H536.868V435.82H521.478V499H557.028V487.12ZM579.759 460.93V448.15H603.069V435.82H564.369V499H603.069V486.67H579.759V472.81H600.369V460.93H579.759ZM625.03 499L628.811 487.84H652.39L656.171 499H672.46L649.601 435.82H631.78L608.921 499H625.03ZM640.601 452.83L648.431 475.96H632.861L640.601 452.83ZM698.498 475.15L711.638 499H729.008L714.428 473.98C719.048 472.6 722.528 470.26 724.868 466.96C727.268 463.66 728.468 459.91 728.468 455.71C728.468 451.99 727.598 448.63 725.858 445.63C724.118 442.57 721.478 440.17 717.938 438.43C714.458 436.69 710.228 435.82 705.248 435.82H679.418V499H694.808V475.15H698.498ZM704.348 464.26H694.808V448.6H704.348C707.168 448.6 709.268 449.29 710.648 450.67C712.088 452.05 712.808 453.94 712.808 456.34C712.808 458.86 712.088 460.81 710.648 462.19C709.268 463.57 707.168 464.26 704.348 464.26ZM779.259 499H794.649V435.82H779.259V474.97L753.519 435.82H738.129V499H753.519V460.03L779.259 499ZM821.195 499V435.82H805.805V499H821.195ZM873.478 499H888.868V435.82H873.478V474.97L847.738 435.82H832.348V499H847.738V460.03L873.478 499ZM937.013 451.03C939.173 452.11 940.823 453.7 941.963 455.8H958.973C957.293 449.32 953.843 444.25 948.623 440.59C943.463 436.93 937.103 435.1 929.543 435.1C923.303 435.1 917.753 436.48 912.893 439.24C908.033 441.94 904.223 445.75 901.463 450.67C898.763 455.53 897.413 461.08 897.413 467.32C897.413 473.56 898.763 479.11 901.463 483.97C904.223 488.83 908.033 492.64 912.893 495.4C917.813 498.1 923.393 499.45 929.633 499.45C934.913 499.45 939.653 498.43 943.853 496.39C948.053 494.35 951.503 491.68 954.203 488.38C956.963 485.08 958.913 481.51 960.053 477.67V463.36H926.573V474.7H946.103C944.903 478.3 942.983 481.06 940.343 482.98C937.763 484.9 934.583 485.86 930.803 485.86C925.283 485.86 920.933 484.24 917.753 481C914.633 477.7 913.073 473.14 913.073 467.32C913.073 461.86 914.573 457.51 917.573 454.27C920.573 450.97 924.563 449.32 929.543 449.32C932.423 449.32 934.913 449.89 937.013 451.03ZM435.97 564.93V552.15H459.28V539.82H420.58V603H459.28V590.67H435.97V576.81H456.58V564.93H435.97ZM470.711 554.67C468.011 559.53 466.661 565.08 466.661 571.32C466.661 577.56 468.011 583.11 470.711 587.97C473.411 592.83 477.161 596.64 481.961 599.4C486.821 602.1 492.311 603.45 498.431 603.45C505.931 603.45 512.351 601.5 517.691 597.6C523.031 593.64 526.601 588.24 528.401 581.4H511.481C510.221 584.04 508.421 586.05 506.081 587.43C503.801 588.81 501.191 589.5 498.251 589.5C493.511 589.5 489.671 587.85 486.731 584.55C483.791 581.25 482.321 576.84 482.321 571.32C482.321 565.8 483.791 561.39 486.731 558.09C489.671 554.79 493.511 553.14 498.251 553.14C501.191 553.14 503.801 553.83 506.081 555.21C508.421 556.59 510.221 558.6 511.481 561.24H528.401C526.601 554.4 523.031 549 517.691 545.04C512.351 541.08 505.931 539.1 498.431 539.1C492.311 539.1 486.821 540.48 481.961 543.24C477.161 545.94 473.411 549.75 470.711 554.67ZM551.326 599.49C556.306 602.25 561.766 603.63 567.706 603.63C573.646 603.63 579.076 602.25 583.996 599.49C588.916 596.73 592.816 592.89 595.696 587.97C598.576 582.99 600.016 577.41 600.016 571.23C600.016 565.05 598.576 559.5 595.696 554.58C592.876 549.66 588.976 545.82 583.996 543.06C579.076 540.3 573.646 538.92 567.706 538.92C561.766 538.92 556.306 540.3 551.326 543.06C546.406 545.82 542.476 549.66 539.536 554.58C536.656 559.5 535.216 565.05 535.216 571.23C535.216 577.41 536.656 582.99 539.536 587.97C542.476 592.89 546.406 596.73 551.326 599.49ZM579.766 584.55C576.766 587.91 572.746 589.59 567.706 589.59C562.606 589.59 558.526 587.94 555.466 584.64C552.466 581.28 550.966 576.81 550.966 571.23C550.966 565.59 552.466 561.12 555.466 557.82C558.526 554.52 562.606 552.87 567.706 552.87C572.746 552.87 576.766 554.55 579.766 557.91C582.826 561.21 584.356 565.65 584.356 571.23C584.356 576.75 582.826 581.19 579.766 584.55ZM619.018 601.38C622.678 602.88 626.818 603.63 631.438 603.63C636.178 603.63 640.288 602.76 643.768 601.02C647.248 599.28 649.888 596.94 651.688 594C653.548 591.06 654.478 587.79 654.478 584.19C654.478 580.41 653.548 577.32 651.688 574.92C649.828 572.52 647.608 570.69 645.028 569.43C642.508 568.17 639.208 566.85 635.128 565.47C631.048 564.15 628.048 562.92 626.128 561.78C624.208 560.64 623.248 559.05 623.248 557.01C623.248 555.15 623.818 553.74 624.958 552.78C626.098 551.76 627.598 551.25 629.458 551.25C631.618 551.25 633.388 551.85 634.768 553.05C636.148 554.19 636.898 555.78 637.018 557.82H653.668C653.368 551.88 651.088 547.26 646.828 543.96C642.568 540.6 636.958 538.92 629.998 538.92C623.158 538.92 617.608 540.6 613.348 543.96C609.088 547.26 606.958 551.85 606.958 557.73C606.958 561.69 607.888 564.9 609.748 567.36C611.608 569.82 613.828 571.68 616.408 572.94C618.988 574.2 622.318 575.46 626.398 576.72C629.218 577.56 631.378 578.31 632.878 578.97C634.438 579.63 635.728 580.47 636.748 581.49C637.828 582.51 638.368 583.8 638.368 585.36C638.368 587.22 637.708 588.69 636.388 589.77C635.068 590.79 633.268 591.3 630.988 591.3C628.768 591.3 626.968 590.7 625.588 589.5C624.208 588.24 623.398 586.44 623.158 584.1H606.778C606.898 588.24 608.038 591.78 610.198 594.72C612.418 597.66 615.358 599.88 619.018 601.38ZM696.259 582.12L718.129 539.82H700.849L688.699 566.28L676.459 539.82H658.999L680.869 582.12V603H696.259V582.12ZM734.77 601.38C738.43 602.88 742.57 603.63 747.19 603.63C751.93 603.63 756.04 602.76 759.52 601.02C763 599.28 765.64 596.94 767.44 594C769.3 591.06 770.23 587.79 770.23 584.19C770.23 580.41 769.3 577.32 767.44 574.92C765.58 572.52 763.36 570.69 760.78 569.43C758.26 568.17 754.96 566.85 750.88 565.47C746.8 564.15 743.8 562.92 741.88 561.78C739.96 560.64 739 559.05 739 557.01C739 555.15 739.57 553.74 740.71 552.78C741.85 551.76 743.35 551.25 745.21 551.25C747.37 551.25 749.14 551.85 750.52 553.05C751.9 554.19 752.65 555.78 752.77 557.82H769.42C769.12 551.88 766.84 547.26 762.58 543.96C758.32 540.6 752.71 538.92 745.75 538.92C738.91 538.92 733.36 540.6 729.1 543.96C724.84 547.26 722.71 551.85 722.71 557.73C722.71 561.69 723.64 564.9 725.5 567.36C727.36 569.82 729.58 571.68 732.16 572.94C734.74 574.2 738.07 575.46 742.15 576.72C744.97 577.56 747.13 578.31 748.63 578.97C750.19 579.63 751.48 580.47 752.5 581.49C753.58 582.51 754.12 583.8 754.12 585.36C754.12 587.22 753.46 588.69 752.14 589.77C750.82 590.79 749.02 591.3 746.74 591.3C744.52 591.3 742.72 590.7 741.34 589.5C739.96 588.24 739.15 586.44 738.91 584.1H722.53C722.65 588.24 723.79 591.78 725.95 594.72C728.17 597.66 731.11 599.88 734.77 601.38ZM825.151 552.15V539.82H776.281V552.15H793.021V603H808.411V552.15H825.151ZM848.265 564.93V552.15H871.575V539.82H832.875V603H871.575V590.67H848.265V576.81H868.875V564.93H848.265ZM953.116 603V539.82H935.026L917.476 583.56L899.746 539.82H881.566V603H896.956V565.02L911.176 603H923.596L937.726 565.11V603H953.116ZM422.02 658.67C419.32 663.53 417.97 669.08 417.97 675.32C417.97 681.56 419.32 687.11 422.02 691.97C424.72 696.83 428.47 700.64 433.27 703.4C438.13 706.1 443.62 707.45 449.74 707.45C457.24 707.45 463.66 705.5 469 701.6C474.34 697.64 477.91 692.24 479.71 685.4H462.79C461.53 688.04 459.73 690.05 457.39 691.43C455.11 692.81 452.5 693.5 449.56 693.5C444.82 693.5 440.98 691.85 438.04 688.55C435.1 685.25 433.63 680.84 433.63 675.32C433.63 669.8 435.1 665.39 438.04 662.09C440.98 658.79 444.82 657.14 449.56 657.14C452.5 657.14 455.11 657.83 457.39 659.21C459.73 660.59 461.53 662.6 462.79 665.24H479.71C477.91 658.4 474.34 653 469 649.04C463.66 645.08 457.24 643.1 449.74 643.1C443.62 643.1 438.13 644.48 433.27 647.24C428.47 649.94 424.72 653.75 422.02 658.67ZM499.575 705.38C503.235 706.88 507.375 707.63 511.995 707.63C516.735 707.63 520.845 706.76 524.325 705.02C527.805 703.28 530.445 700.94 532.245 698C534.105 695.06 535.035 691.79 535.035 688.19C535.035 684.41 534.105 681.32 532.245 678.92C530.385 676.52 528.165 674.69 525.585 673.43C523.065 672.17 519.765 670.85 515.685 669.47C511.605 668.15 508.605 666.92 506.685 665.78C504.765 664.64 503.805 663.05 503.805 661.01C503.805 659.15 504.375 657.74 505.515 656.78C506.655 655.76 508.155 655.25 510.015 655.25C512.175 655.25 513.945 655.85 515.325 657.05C516.705 658.19 517.455 659.78 517.575 661.82H534.225C533.925 655.88 531.645 651.26 527.385 647.96C523.125 644.6 517.515 642.92 510.555 642.92C503.715 642.92 498.165 644.6 493.905 647.96C489.645 651.26 487.515 655.85 487.515 661.73C487.515 665.69 488.445 668.9 490.305 671.36C492.165 673.82 494.385 675.68 496.965 676.94C499.545 678.2 502.875 679.46 506.955 680.72C509.775 681.56 511.935 682.31 513.435 682.97C514.995 683.63 516.285 684.47 517.305 685.49C518.385 686.51 518.925 687.8 518.925 689.36C518.925 691.22 518.265 692.69 516.945 693.77C515.625 694.79 513.825 695.3 511.545 695.3C509.325 695.3 507.525 694.7 506.145 693.5C504.765 692.24 503.955 690.44 503.715 688.1H487.335C487.455 692.24 488.595 695.78 490.755 698.72C492.975 701.66 495.915 703.88 499.575 705.38ZM554.946 705.38C558.606 706.88 562.746 707.63 567.366 707.63C572.106 707.63 576.216 706.76 579.696 705.02C583.176 703.28 585.816 700.94 587.616 698C589.476 695.06 590.406 691.79 590.406 688.19C590.406 684.41 589.476 681.32 587.616 678.92C585.756 676.52 583.536 674.69 580.956 673.43C578.436 672.17 575.136 670.85 571.056 669.47C566.976 668.15 563.976 666.92 562.056 665.78C560.136 664.64 559.176 663.05 559.176 661.01C559.176 659.15 559.746 657.74 560.886 656.78C562.026 655.76 563.526 655.25 565.386 655.25C567.546 655.25 569.316 655.85 570.696 657.05C572.076 658.19 572.826 659.78 572.946 661.82H589.596C589.296 655.88 587.016 651.26 582.756 647.96C578.496 644.6 572.886 642.92 565.926 642.92C559.086 642.92 553.536 644.6 549.276 647.96C545.016 651.26 542.886 655.85 542.886 661.73C542.886 665.69 543.816 668.9 545.676 671.36C547.536 673.82 549.756 675.68 552.336 676.94C554.916 678.2 558.246 679.46 562.326 680.72C565.146 681.56 567.306 682.31 568.806 682.97C570.366 683.63 571.656 684.47 572.676 685.49C573.756 686.51 574.296 687.8 574.296 689.36C574.296 691.22 573.636 692.69 572.316 693.77C570.996 694.79 569.196 695.3 566.916 695.3C564.696 695.3 562.896 694.7 561.516 693.5C560.136 692.24 559.326 690.44 559.086 688.1H542.706C542.826 692.24 543.966 695.78 546.126 698.72C548.346 701.66 551.286 703.88 554.946 705.38ZM638.577 681.8V669.02H598.977V681.8H638.577ZM677.914 687.65L690.784 707H708.694L687.814 675.68L707.884 643.82H690.424L679.264 662.9L666.574 643.82H648.664L669.364 674.87L649.114 707H666.574L677.914 687.65Z" fill="white"/>
</svg>
